<?xml version="1.0" encoding="utf-8"?>
<!-- Generator: Adobe Illustrator 25.2.3, SVG Export Plug-In . SVG Version: 6.00 Build 0)  -->
<svg version="1.1" id="Layer_1" xmlns="http://www.w3.org/2000/svg" xmlns:xlink="http://www.w3.org/1999/xlink" x="0px" y="0px"
	 viewBox="0 0 175 34" style="enable-background:new 0 0 175 34;" xml:space="preserve">
<style type="text/css">
	.st0{fill:url(#SVGID_1_);}
</style>
<linearGradient id="SVGID_1_" gradientUnits="userSpaceOnUse" x1="172.8374" y1="17" x2="2.1626" y2="17">
	<stop  offset="0" style="stop-color:#FFB311"/>
	<stop  offset="1" style="stop-color:#FF8D12"/>
</linearGradient>
<path class="st0" d="M11.7,19.7c0.1,0.8,0.3,1.5,0.5,2.2c0.2,0.6,0.5,1.2,0.9,1.7c0.4,0.5,0.8,0.9,1.2,1.2c0.5,0.3,1,0.6,1.6,0.7
	c0.6,0.2,1.2,0.2,1.9,0.2c0.8,0,1.6-0.1,2.2-0.4c0.6-0.2,1.2-0.6,1.7-1.1c0.5-0.5,0.9-1.1,1.2-1.9c0.3-0.8,0.5-1.7,0.7-2.7h9.2
	c-0.3,2.1-0.8,4-1.6,5.7c-0.8,1.7-1.9,3.1-3.2,4.3c-1.3,1.2-2.8,2.1-4.5,2.7c-1.7,0.6-3.6,1-5.7,1c-1.5,0-3-0.2-4.3-0.5
	c-1.4-0.3-2.6-0.9-3.8-1.5c-1.2-0.7-2.2-1.5-3.2-2.4c-0.9-1-1.7-2-2.4-3.2c-0.7-1.2-1.2-2.5-1.5-4c-0.4-1.5-0.5-3-0.5-4.7
	c0-1.7,0.2-3.2,0.5-4.7c0.4-1.5,0.9-2.8,1.5-4C4.9,7.1,5.7,6,6.6,5.1c0.9-1,2-1.8,3.2-2.4s2.4-1.2,3.8-1.5s2.8-0.5,4.3-0.5
	c2.1,0,3.9,0.3,5.7,1c1.7,0.6,3.2,1.5,4.5,2.7c1.3,1.2,2.3,2.6,3.2,4.3s1.4,3.6,1.6,5.7h-9.2c-0.1-1-0.4-1.9-0.7-2.7
	c-0.3-0.8-0.7-1.4-1.2-1.9c-0.5-0.5-1-0.9-1.7-1.1c-0.6-0.2-1.4-0.4-2.2-0.4c-0.7,0-1.3,0.1-1.9,0.2c-0.6,0.2-1.1,0.4-1.6,0.7
	c-0.5,0.3-0.9,0.7-1.2,1.2c-0.4,0.5-0.7,1.1-0.9,1.7c-0.2,0.6-0.4,1.4-0.5,2.2c-0.1,0.8-0.2,1.7-0.2,2.7S11.6,18.9,11.7,19.7z
	 M44.1,32.7h-9.3V1.3h9.3V32.7z M76.1,32.7H63.9l-8.7-22.1l0,0v22.1h-8.8V1.3h12.9l8,20.3l0,0V1.3h8.8V32.7z M100.6,1.3v7.5H87.2
	l0.5-0.5v5.8l-0.5-0.5h12.2v6.9H87.2l0.5-0.6v5.8l-0.5-0.5H101v7.5H78.5V1.3H100.6z M118.2,1.3v24.4l-0.5-0.5h12.9v7.5h-21.7V1.3
	H118.2z M141.7,32.7h-9.3V1.3h9.3V32.7z M160.2,1.3c1.8,0,3.4,0.2,4.8,0.5c1.4,0.3,2.6,0.8,3.6,1.5s1.7,1.5,2.2,2.4
	c0.5,1,0.8,2.1,0.8,3.4c0,1.1-0.2,2.2-0.6,3.1c-0.4,0.9-0.9,1.7-1.6,2.3c-0.7,0.6-1.5,1.1-2.4,1.5c-0.9,0.3-1.9,0.5-3,0.5v-0.1
	c1.3,0,2.4,0.2,3.5,0.6c1.1,0.4,2,0.9,2.9,1.6c0.8,0.7,1.4,1.5,1.9,2.5c0.5,1,0.7,2,0.7,3.2c0,1.3-0.3,2.5-0.9,3.6
	c-0.6,1.1-1.5,1.9-2.6,2.7c-1.1,0.7-2.4,1.3-4,1.6c-1.6,0.4-3.3,0.6-5.2,0.6H144V1.3H160.2z M160.4,13.7c0.4-0.1,0.8-0.3,1-0.5
	c0.3-0.2,0.5-0.5,0.7-0.9c0.2-0.4,0.2-0.8,0.2-1.3c0-0.5-0.1-0.9-0.2-1.2c-0.2-0.4-0.4-0.6-0.7-0.9c-0.3-0.2-0.6-0.4-1.1-0.5
	c-0.4-0.1-0.9-0.2-1.4-0.2h-5.8l0.1-0.1v6l-0.1-0.1h5.8C159.5,13.8,160,13.8,160.4,13.7z M153.2,25.9h6.7c0.6,0,1.1-0.1,1.6-0.2
	c0.5-0.1,0.8-0.3,1.2-0.5c0.3-0.2,0.5-0.5,0.7-0.9c0.2-0.4,0.2-0.8,0.2-1.3s-0.1-1-0.2-1.3s-0.4-0.7-0.7-0.9
	c-0.3-0.2-0.7-0.4-1.2-0.5c-0.5-0.1-1-0.2-1.6-0.2h-6.7l0.1-0.1V26L153.2,25.9z"/>
</svg>
